<svg width="20" height="20" viewBox="0 0 20 20" fill="none" xmlns="http://www.w3.org/2000/svg">
<g clip-path="url(#clip0_921_7406)">
<rect width="20" height="20" fill="#F93939"/>
<path fill-rule="evenodd" clip-rule="evenodd" d="M0 14.6667H20V20.0001H0V14.6667Z" fill="#00B731"/>
<path fill-rule="evenodd" clip-rule="evenodd" d="M0 0H20V5.33333H0V0Z" fill="#03BCDB"/>
<path fill-rule="evenodd" clip-rule="evenodd" d="M0 6.66659H20V13.3333H0V6.66659ZM4.76191 5.21992C4.61333 5.29325 4.45238 5.33325 4.28571 5.33325C3.49714 5.33325 2.85714 4.43725 2.85714 3.33325C2.85714 2.22925 3.49714 1.33325 4.28571 1.33325C4.45238 1.33325 4.61333 1.37325 4.76191 1.44659C4.20667 1.72125 3.80952 2.46259 3.80952 3.33325C3.80952 4.20392 4.20667 4.94659 4.76191 5.21992Z" fill="white"/>
<path opacity="0.5" fill-rule="evenodd" clip-rule="evenodd" d="M5.71436 2.66659H6.66674V3.99992H5.71436V2.66659ZM6.66674 1.33325H7.61912V2.66659H6.66674V1.33325ZM7.61912 2.66659H8.5715V3.99992H7.61912V2.66659ZM8.5715 1.33325H9.52388V2.66659H8.5715V1.33325ZM9.52388 2.66659H10.4763V3.99992H9.52388V2.66659ZM8.5715 3.99992H9.52388V5.33325H8.5715V3.99992ZM6.66674 3.99992H7.61912V5.33325H6.66674V3.99992Z" fill="#1A47B8"/>
</g>
<defs>
<clipPath id="clip0_921_7406">
<rect width="20" height="20" fill="white"/>
</clipPath>
</defs>
</svg>
