<svg width="216" height="162" viewBox="0 0 216 162" fill="none" xmlns="http://www.w3.org/2000/svg">
<path fill-rule="evenodd" clip-rule="evenodd" d="M54.263 0H38.31L37.922 1.12016C37.7064 1.72332 37.534 2.41265 37.4908 2.62806C37.4477 2.84348 38.8274 3.01581 40.4658 3.01581C43.3546 3.01581 43.4839 3.05889 43.2684 3.96364C43.139 4.52372 43.0528 5.08379 43.0528 5.25613C43.0528 5.47154 41.5437 5.60079 39.6898 5.60079H36.3698C33.093 15.1221 32.0582 18.1379 31.9719 18.3964C31.8857 18.7411 32.3168 18.9566 33.1361 18.9566C33.9984 18.9566 34.3864 19.1289 34.2571 19.4735C34.203 19.6626 33.9456 20.4272 33.6124 21.4173C33.4141 22.0067 33.1888 22.6758 32.9636 23.351C31.8857 26.6253 31.7995 26.7114 30.4197 26.7114H29.0401C27.0759 32.4482 25.9207 35.8486 25.2822 37.7277C24.8275 39.0662 24.6349 39.6329 24.5991 39.7225C24.556 39.8948 25.0733 40.0672 25.8063 40.0672C26.6256 40.0672 27.0567 40.2395 26.9274 40.5841C26.8942 40.7001 26.8228 40.9306 26.7304 41.2291C26.5824 41.7074 26.3801 42.3603 26.1943 42.9969C25.677 44.634 25.4614 44.8063 24.2973 44.8063C23.0038 44.7632 22.9606 44.8494 20.8048 50.9241C18.649 56.9988 18.6059 57.085 17.183 57.3004C16.1517 57.4378 7.65926 57.356 3.63202 57.3173C2.60877 57.3075 1.87379 57.3004 1.62267 57.3004L0 62.0395C2.02646 62.0395 16.7519 62.1687 16.7519 62.3411C16.7519 62.519 16.1345 64.3126 15.3367 66.6303C15.1683 67.1194 14.992 67.6318 14.8117 68.1573C13.7338 71.2162 12.8714 73.7581 12.8714 73.8874C12.8714 74.0166 13.432 74.1028 14.1649 74.1028C15.1997 74.1028 15.4153 74.232 15.1997 74.8352C15.0272 75.266 14.8117 76.817 14.7685 78.2818L14.7675 78.299C14.5961 80.9531 14.5933 80.996 13.3026 80.996C12.0091 80.996 12.0091 81.0391 12.0091 83.3656V85.7352L46.7177 85.9506C46.9333 92.1541 46.9333 92.1974 45.8553 92.1974C44.8206 92.1974 44.7775 92.2841 44.7775 95.429C44.7775 98.4447 44.8206 98.6605 45.7691 98.7463C46.6315 98.8755 46.7177 99.0913 46.847 102.193L46.9333 105.554C57.1087 105.984 66.7497 105.754 67.224 105.669C67.224 105.319 67.2468 104.728 67.2761 103.971C67.3283 102.618 67.4011 100.735 67.4011 98.7463C67.0946 98.7463 66.5473 98.7552 65.893 98.7667C64.1067 98.7967 61.5224 98.841 60.8598 98.7463C59.9544 98.6605 59.8682 98.4447 59.8682 95.644C59.8682 92.8441 59.9544 92.6283 60.8167 92.4991C61.7222 92.4133 61.8084 92.1974 61.8946 89.0526L62.024 85.7352H69.7849C70.0004 81.2545 70.0435 81.2114 71.3802 81.0822L72.803 80.996V74.1028C70.561 74.1028 70.1729 73.8443 70.0004 73.2411C69.7849 72.4656 69.4399 72.3794 65.9044 72.3794H62.024L61.8084 62.2549C60.3257 62.141 59.6274 62.0873 59.2986 61.7111C59.0058 61.3763 59.0058 60.7859 59.0058 59.6699V57.3004H62.024V44.8063C64.5678 44.8063 64.6109 44.7632 64.6109 42.6521V40.498H49.5202C49.5202 44.7632 49.4771 44.8063 48.2267 44.8063H46.9333V57.3004H43.9151C43.9151 60.6104 43.9151 61.6085 44.3852 61.9389C44.5882 62.0815 44.8787 62.0997 45.2948 62.1257L46.7177 62.2549L46.9333 72.3794H29.6868C32.36 64.7107 33.1361 62.3841 33.1361 62.2549C33.1361 62.1257 32.5755 62.0395 31.8426 62.0395H30.5491C32.0582 57.7743 32.2737 57.4727 33.5673 57.3004C34.9469 57.085 34.99 56.9988 37.0596 50.9672C39.1292 44.8924 39.1723 44.8063 40.4658 44.8063C41.5006 44.8063 41.8886 44.5478 42.363 43.3846C42.6648 42.6521 43.0528 41.5751 43.2253 41.015C43.4408 40.1964 43.3115 40.0672 42.1905 40.0672C41.3281 40.0672 40.9401 39.8948 41.0694 39.5071C41.1497 39.3468 41.5614 38.1265 42.1401 36.411C42.4949 35.3597 42.9123 34.1225 43.3546 32.8293L45.4242 26.7114C48.2123 26.7114 48.2267 26.6688 49.5003 22.893L49.5202 22.834L50.8138 18.9566C48.7011 18.9566 48.2698 18.7842 48.3992 18.3964C48.4423 18.1379 49.434 15.1221 50.555 11.7616L52.5383 5.60079C58.5746 5.60079 59.0489 5.47154 59.4369 4.73913C59.6957 4.26521 59.8682 3.70514 59.8682 3.44664C59.8682 3.18815 58.5746 3.01581 56.85 3.01581H53.8319L54.263 0ZM125.103 0.43083C124.111 0.172332 115.919 0 104.709 0.043083C94.4038 0.043083 85.4791 0.215415 84.8755 0.387747C84.2719 0.560079 83.2802 1.03399 82.6335 1.42173C81.9868 1.80948 81.4262 2.32649 81.4262 2.58498C81.4262 2.8004 82.8922 3.01581 84.8755 3.01581H88.3249C87.0313 5.5577 86.9882 5.60079 83.2802 5.68696L79.4861 5.81621C79.0548 7.79803 78.9255 10.7708 78.8824 13.6573L78.8392 18.9566H85.3067V26.7114H78.8392C78.8392 39.0332 78.9686 40.0672 79.4861 40.0672C80.0034 40.0672 80.1328 40.5842 80.1328 42.4367C80.1328 44.2462 80.0034 44.8063 79.4861 44.8063C78.9686 44.8063 78.8392 45.7542 78.8392 51.0533V57.3004H85.3067V62.0395L79.0548 62.2549L78.8392 74.1028C80.9951 74.1028 80.9951 74.1459 80.9951 77.5494C80.9951 80.9099 80.9951 80.996 79.9172 80.996H78.8392C79.0548 92.2408 79.0979 92.4133 80.0465 92.4991C80.9088 92.5858 80.9951 92.8441 80.9951 94.9982C80.9951 96.2906 81.0813 97.6264 81.2106 98.0139C81.3831 98.4447 81.1244 98.6605 80.3483 98.6605C79.3997 98.6605 79.3135 98.7897 79.5292 99.8229C79.6585 100.47 80.1328 101.59 80.5639 102.322C80.9951 103.011 82.2886 104.089 83.4096 104.692L85.5223 105.768C121.912 105.768 124.111 105.683 125.965 104.994C127.216 104.519 128.423 103.701 129.026 102.839C129.63 102.064 130.191 100.9 130.32 100.254C130.493 99.608 130.838 99.048 131.14 99.0046C131.441 99.0046 131.959 98.9613 132.303 98.9188C132.821 98.8755 132.994 98.143 133.079 95.5148C133.138 93.267 133.156 92.5424 132.827 92.3089C132.67 92.1974 132.435 92.1974 132.088 92.1974H131.01V80.996C128.897 80.996 128.854 80.9099 128.854 77.5494C128.854 74.1459 128.897 74.1028 129.932 74.1028H131.01V62.0395C133.597 62.0395 133.597 61.9964 133.597 59.6699C133.597 57.3004 133.597 57.3004 132.303 57.3004H131.01C131.01 47.1758 131.182 44.8063 131.441 44.8063C131.7 44.8063 131.872 43.7293 131.872 42.4367C131.872 41.1012 131.7 40.0672 131.441 40.0672C131.182 40.0672 131.01 37.5253 131.01 33.3893V26.7114C128.854 26.7114 128.854 26.6684 128.854 22.834C128.854 20.1143 128.854 19.3023 129.226 19.0598C129.384 18.9566 129.61 18.9566 129.932 18.9566H131.01L130.794 5.60079C134.739 5.60079 139.515 5.63187 142.238 5.64959C143.324 5.65666 144.084 5.6616 144.334 5.6616C144.334 5.57888 143.896 4.76197 143.501 4.02644C143.279 3.61278 143.071 3.22484 142.962 3.00773C142.726 3.00773 142.015 3.00427 141.04 2.99953C138.914 2.98918 135.533 2.97273 133.079 2.97273C129.674 3.01581 129.156 2.88656 127.992 1.93874C127.302 1.33557 125.965 0.646245 125.103 0.43083ZM182.318 0H166.063L165.546 1.07708C165.287 1.63715 165.072 2.32649 165.072 2.58498C165.072 2.8004 165.676 3.01581 166.365 3.01581C167.615 3.01581 167.659 3.05889 167.228 4.3083C166.882 5.38538 166.581 5.60079 165.417 5.60079H163.993L159.64 18.7411L152.353 18.9566C150.541 24.4711 149.981 26.1945 149.981 26.3668C149.981 26.5391 151.534 26.7114 153.43 26.7114H156.88C152.999 37.6114 152.309 40.1103 152.654 40.1533C152.999 40.2395 152.913 40.9289 152.438 42.5229C151.965 43.9447 151.49 44.8063 151.059 44.8063C150.628 44.8063 149.808 46.6158 148.472 50.7087C147.394 53.983 146.532 56.7834 146.532 56.9557C146.532 57.1281 147.006 57.3004 147.61 57.3004C148.213 57.3004 148.687 57.4296 148.687 57.602C148.687 57.7743 148.429 58.8514 148.041 59.9715C147.481 61.8241 147.265 62.0395 146.101 62.0395C145.411 62.0395 144.721 62.1687 144.634 62.3411C144.505 62.5134 143.557 65.1846 142.522 68.2865L140.582 73.8874C136.787 74.0597 136.572 74.1889 136.184 75.4814C135.925 76.2569 135.753 77.8079 135.753 78.9281V80.996H139.633V85.7352H174.557V105.984H189.648V85.7352H216V80.996H193.959V74.1028C197.15 74.1028 197.409 73.9305 197.409 73.2411C197.409 72.4225 197.15 72.3794 193.528 72.3794H189.648V62.0395C192.235 62.0395 192.235 61.9964 192.235 59.6699C192.235 57.3004 192.235 57.3004 190.941 57.3004H189.648V40.498H174.557V57.3004C177.144 57.3004 177.144 57.3004 177.144 59.6699C177.144 61.9964 177.144 62.0395 175.85 62.0395H174.557V72.3794C159.725 72.3794 157.742 72.2502 157.785 71.8194C157.785 71.5178 158.518 69.2344 159.38 66.7786C160.933 62.3411 161.019 62.2549 162.398 62.1257C163.649 62.0395 163.864 61.8241 164.425 59.9715C164.813 58.8514 165.072 57.7743 165.072 57.602C165.072 57.4296 164.597 57.3004 163.993 57.3004C163.391 57.3004 162.916 57.1281 162.916 56.9557C162.916 56.7834 163.778 53.983 164.856 50.7087C166.193 46.6158 167.012 44.8063 167.444 44.8063C167.875 44.8063 168.348 43.9447 168.823 42.5229C169.297 40.9289 169.383 40.2395 169.039 40.1533C168.694 40.1103 169.297 37.7838 170.677 33.6909C171.884 30.2012 172.832 27.1853 172.832 27.013C172.832 26.8407 171.366 26.7114 169.599 26.7114C167.831 26.7114 166.365 26.5391 166.365 26.3668C166.365 26.1945 166.926 24.428 167.573 22.4893L168.737 18.9135L175.85 18.9566C177.101 15.4237 178.136 12.4079 178.912 9.9953L178.955 9.86605C180.378 5.59995 180.392 5.55814 181.801 5.60079C182.965 5.60079 183.267 5.38538 183.612 4.3083C184.043 3.05889 184 3.01581 182.75 3.01581C182.06 3.01581 181.456 2.8004 181.456 2.58498C181.456 2.32649 181.671 1.63715 181.887 1.07708L182.318 0ZM25.2458 20.6798H20.3737L18.9508 24.9881H28.6519C29.5143 22.4893 29.8592 21.4984 29.9886 21.1969C30.1179 20.809 28.9969 20.6798 25.2458 20.6798ZM176.583 20.6798H172.143L170.72 24.9881H189.512C189.767 24.3033 190.043 23.6126 190.292 22.9857C190.717 21.9166 191.069 21.0329 191.123 20.6798H176.583ZM84.0564 21.1107H76.7265V24.5573H84.0564V21.1107ZM79.3135 44.3755V40.498C70.3885 40.498 67.629 40.6273 67.4566 40.7566C67.241 40.9289 67.1117 41.7905 67.1548 42.6952L67.241 44.3755H79.3135ZM81.9006 57.7312H64.1505V61.6087H81.9006V57.7312ZM17.873 126.923L16.5794 123.605C13.1732 123.605 12.0091 123.778 11.8367 123.907C11.6211 124.079 11.4917 125.63 11.5349 127.353C11.578 129.852 11.7504 130.542 12.2678 130.542C12.7421 130.542 12.9145 131.102 12.9145 133.126C12.9145 135.108 12.7421 135.711 12.2678 135.711C11.7073 135.711 11.6211 136.444 11.6211 140.019C11.6211 143.553 11.4917 144.328 10.9743 144.328C10.5 144.328 10.2845 144.888 10.1982 146.482C10.1551 147.646 10.1551 148.809 10.1982 149.067C10.2845 149.282 10.6294 149.498 10.9743 149.498C11.4917 149.498 11.6211 150.446 11.6211 155.745V161.992H17.2262C17.2262 149.842 17.183 149.455 16.3639 149.282C15.5878 149.067 15.5016 148.722 15.5878 146.568C15.674 144.716 15.8465 144.113 16.3639 144.113C16.795 144.113 17.0537 143.467 17.2262 141.959L17.4848 139.804C18.3472 141.786 19.1664 143.898 19.8562 145.707C20.5461 147.559 21.1066 149.153 21.1066 149.282C21.1066 149.369 20.8048 149.498 20.4599 149.498C20.115 149.498 19.8131 149.584 19.8131 149.713C19.8131 149.8 19.9857 150.403 20.2443 151.006C20.4599 151.566 21.0204 152.083 21.4084 152.04C21.9689 152.04 22.6588 153.29 24.1247 156.994L26.065 161.992H31.0234C31.0234 152.341 30.9803 152.083 30.161 152.083C29.4712 152.083 29.2987 151.781 29.2987 150.791C29.2987 149.756 29.4712 149.498 30.161 149.498C30.9803 149.498 31.0234 149.197 31.0234 142.605C31.0234 136.745 31.1096 135.711 31.6701 135.711C32.1444 135.711 32.3168 135.108 32.3168 133.126C32.3168 131.102 32.1444 130.542 31.6701 130.542C31.1528 130.542 31.0234 129.852 31.0234 127.095V123.649H25.4183C25.4183 129.852 25.5476 130.542 26.065 130.542C26.5393 130.542 26.7118 131.102 26.7118 133.126C26.7118 135.108 26.5393 135.711 26.065 135.711C25.5476 135.711 25.3751 136.573 25.2889 140.537L25.2027 145.405C22.1846 137.736 21.624 135.84 21.9258 135.711C22.2277 135.539 22.012 134.591 21.4084 133.041C20.8911 131.661 20.1581 130.498 19.8131 130.412C19.4682 130.283 18.5628 128.732 17.873 126.923ZM54.0043 124.812C53.3576 124.165 52.1072 124.036 45.8984 123.864C41.8455 123.734 38.2669 123.778 37.922 123.907C37.5771 124.036 36.9303 124.51 36.4991 124.854C35.8524 125.458 35.7231 126.319 35.7231 130.627C35.7662 133.73 35.9386 135.711 36.1973 135.711C36.4129 135.711 36.6285 136.185 36.6285 136.789C36.6285 137.349 36.4129 137.865 36.1973 137.865C35.9386 137.865 35.7662 140.063 35.7662 143.682C35.7662 149.197 35.7231 149.498 34.9038 149.498C34.214 149.498 34.0415 149.756 34.0415 150.791C34.0415 151.781 34.214 152.083 34.9038 152.083C35.68 152.083 35.7662 152.341 35.7662 156.176C35.7662 159.665 35.8955 160.355 36.6285 161.13C37.4045 161.906 38.0513 161.992 45.2517 161.992C52.409 161.992 53.0558 161.906 53.875 161.13C54.6079 160.355 54.7373 159.665 54.7373 156.176C54.7373 152.816 54.8666 152.083 55.3841 152.083C55.8152 152.083 56.0308 151.652 56.0308 150.791C56.0308 150.015 55.7721 149.411 55.3841 149.282C54.8666 149.11 54.7373 148.292 54.7373 145.621C54.7373 142.82 54.8666 142.173 55.3841 142.173C55.8583 142.173 56.0308 141.614 56.0308 140.019C56.0308 138.469 55.8152 137.78 55.3841 137.65C54.8235 137.478 54.7373 136.4 54.7373 131.489C54.7373 126.363 54.651 125.458 54.0043 124.812ZM76.2954 128.818L76.0798 123.864C62.7138 123.734 58.5315 123.778 58.1866 123.907C57.7555 124.079 57.583 124.768 57.6692 126.448L57.7555 128.818C62.8863 128.991 63.9641 129.206 64.0504 129.551C64.1367 129.852 63.8348 130.197 63.3605 130.326C62.6276 130.498 62.4982 130.887 62.4982 133.126C62.4982 135.41 62.5845 135.711 63.3605 135.711C64.1798 135.711 64.2229 135.97 64.2229 142.605C64.2229 146.913 64.3954 149.498 64.654 149.498C64.8696 149.498 65.0852 150.058 65.0852 150.791C65.0852 151.48 64.8696 152.083 64.654 152.083C64.3954 152.083 64.2229 154.022 64.2229 157.038V161.992H69.828C69.828 154.022 70.0004 152.083 70.2591 152.083C70.4748 152.083 70.6903 151.48 70.6903 150.791C70.6903 150.058 70.4748 149.498 70.2591 149.498C70.0004 149.498 69.828 146.913 69.828 142.605C69.828 135.97 69.7849 135.711 68.9657 135.711C68.1895 135.711 68.1033 135.41 68.1033 133.126C68.1033 130.8 68.1895 130.542 68.9657 130.542C69.5405 130.542 69.828 130.254 69.828 129.68C69.828 128.862 70.0867 128.818 73.0617 128.818H76.2954ZM103.243 123.864L87.5056 123.605V125.544C87.5056 127.224 87.635 127.526 88.368 127.526C89.1867 127.526 89.2301 127.784 89.2301 132.696C89.2301 136.444 89.3594 137.909 89.748 137.995C90.0924 138.125 90.3084 138.899 90.3084 140.019C90.3084 141.14 90.0924 141.915 89.748 142.002C89.3594 142.131 89.2301 144.5 89.2301 152.083V161.992H94.835V145.19H103.459C103.459 142.82 103.631 142.173 103.89 142.173C104.105 142.173 104.321 141.657 104.321 141.097C104.321 140.019 104.278 140.019 100.225 140.019C97.3209 140.019 96.4764 140.019 96.2302 139.636C96.1293 139.479 96.1293 139.256 96.1293 138.943C96.1293 138.34 95.8274 137.736 95.4821 137.65C94.9651 137.478 94.835 136.616 94.9218 133.212L95.051 129.033C103.89 128.818 104.752 128.689 104.752 128.172C104.752 127.784 104.45 127.526 104.105 127.526C103.631 127.526 103.415 126.966 103.33 125.673L103.243 123.864ZM126.396 124.812C125.75 124.209 124.542 124.036 118.334 123.864C114.281 123.734 110.702 123.778 110.357 123.907C109.969 124.079 109.366 124.51 108.934 124.898C108.245 125.501 108.158 126.448 108.158 133.859C108.201 141.873 108.158 142.173 107.339 142.173C106.692 142.173 106.477 142.475 106.477 143.251C106.477 144.027 106.692 144.328 107.339 144.328C108.115 144.328 108.201 144.63 108.201 148.206C108.201 150.489 108.374 152.083 108.633 152.083C108.849 152.083 109.064 153.591 109.064 155.745C109.064 157.899 108.849 159.407 108.633 159.407C108.374 159.407 108.201 159.579 108.201 159.838C108.201 160.054 108.589 160.657 109.064 161.13C109.84 161.906 110.486 161.992 117.687 161.992C124.844 161.992 125.491 161.906 126.31 161.13C126.785 160.657 127.173 160.054 127.173 159.838C127.173 159.579 127.431 159.407 127.819 159.407C128.337 159.407 128.466 158.718 128.466 155.745C128.466 152.772 128.337 152.083 127.819 152.083C127.259 152.083 127.173 150.876 127.173 143.898C127.173 136.918 127.043 135.711 126.525 135.711C126.008 135.711 125.879 135.151 125.879 133.126C125.879 131.102 126.008 130.542 126.525 130.542C127 130.542 127.173 129.982 127.173 128.042C127.173 126.233 127 125.372 126.396 124.812ZM137.52 126.879V123.649C133.985 123.691 132.692 123.82 132.346 123.907C131.872 124.079 131.743 124.898 131.829 127.353C131.872 129.723 132.044 130.585 132.562 130.757C132.994 130.929 133.209 131.618 133.209 133.342C133.209 135.151 133.036 135.711 132.562 135.711C132.002 135.711 131.915 136.745 131.915 142.605C131.915 149.197 131.872 149.498 131.053 149.498C130.363 149.498 130.191 149.8 130.191 150.791C130.191 151.781 130.363 152.083 131.053 152.083C131.829 152.083 131.915 152.385 131.915 155.96C131.915 159.536 132.002 159.924 132.994 160.915C134.028 161.992 134.114 161.992 141.616 161.992C148.558 161.992 149.205 161.906 150.024 161.13C150.801 160.312 150.886 159.709 150.886 152.083C150.886 145.103 150.757 143.898 150.239 143.898C149.852 143.898 149.593 143.509 149.593 143.036C149.593 142.562 149.852 142.173 150.239 142.173C150.757 142.173 150.886 140.839 150.886 132.911V123.649H145.282C145.282 141.873 145.238 142.173 144.419 142.173C143.844 142.173 143.557 142.461 143.557 143.036C143.557 143.553 143.901 143.983 144.419 144.113C145.195 144.328 145.282 144.673 145.282 150.791V157.253H137.52C137.52 152.385 137.391 152.083 136.658 152.083C135.968 152.083 135.796 151.781 135.796 150.791C135.796 149.8 135.968 149.498 136.658 149.498C137.478 149.498 137.52 149.197 137.52 142.605C137.52 136.745 137.607 135.711 138.167 135.711C138.642 135.711 138.814 135.151 138.814 133.126C138.814 131.187 138.642 130.498 138.167 130.326C137.649 130.154 137.52 129.378 137.52 126.879ZM160.544 123.864L155.672 123.562L155.629 127.052C155.629 130.24 155.543 130.542 154.767 130.542C153.991 130.542 153.905 130.843 153.905 133.126C153.905 135.41 153.991 135.711 154.767 135.711C155.587 135.711 155.629 136.013 155.629 147.559C155.629 159.105 155.587 159.407 154.767 159.407C154.077 159.407 153.905 159.709 153.905 160.699V161.992H159.509C159.509 159.709 159.682 159.407 160.372 159.407C161.191 159.407 161.234 159.105 161.234 149.584L161.277 139.804C162.614 142.82 163.347 143.983 163.735 144.328C164.166 144.673 164.856 145.923 165.33 147.128C165.848 148.637 165.934 149.326 165.589 149.369C165.244 149.455 165.201 149.8 165.546 150.575C165.591 150.701 165.636 150.825 165.679 150.944C165.842 151.393 165.977 151.765 165.977 151.867C165.977 151.997 165.676 152.083 165.33 152.083C164.943 152.083 164.684 152.169 164.684 152.298C164.684 152.428 165.244 154.065 165.977 155.96C166.926 158.503 167.444 159.407 168.004 159.364C168.435 159.364 169.039 159.967 169.427 160.699C170.03 161.949 170.202 162.035 172.531 161.992C174.988 161.992 175.031 161.992 175.031 160.699C175.031 159.709 174.816 159.407 174.169 159.407C173.35 159.407 173.307 159.105 173.307 155.745C173.307 152.385 173.35 152.083 174.169 152.083C174.816 152.083 175.031 151.781 175.031 150.791C175.031 150.058 175.204 149.498 175.463 149.498C175.679 149.498 175.894 148.292 175.894 146.697C175.894 145.103 175.679 143.898 175.463 143.898C175.161 143.898 174.988 140.192 174.902 133.859L174.816 123.864L169.427 123.649C169.211 140.192 169.039 143.898 168.779 143.854C168.521 143.854 167.659 142.044 166.796 139.89C165.676 136.875 165.072 135.884 164.425 135.798C163.864 135.711 163.304 134.979 162.743 133.428C162.594 133.047 162.444 132.671 162.308 132.328C162.013 131.586 161.781 131.004 161.752 130.887C161.708 130.671 161.924 130.542 162.312 130.542C162.658 130.542 162.916 130.283 162.916 129.982C162.873 129.723 162.356 128.215 161.708 126.664L160.544 123.864ZM194.649 124.596C193.658 124.036 191.76 123.82 186.673 123.734C182.965 123.649 179.817 123.691 179.602 123.864C179.386 124.079 179.214 126.793 179.257 129.938C179.3 134.721 179.43 135.711 179.99 135.711C180.378 135.711 180.636 136.1 180.636 136.789C180.636 137.435 180.378 137.865 179.99 137.865C179.43 137.865 179.343 138.943 179.343 144.974C179.343 151.006 179.214 152.083 178.697 152.083C178.179 152.083 178.05 152.772 178.05 155.745C178.05 158.718 178.179 159.407 178.697 159.407C179.084 159.407 179.386 159.881 179.43 160.57L179.559 161.777C189.562 161.949 193.14 161.82 194.003 161.604C194.822 161.346 195.9 160.743 196.375 160.268C197.15 159.45 197.15 159.364 196.46 159.364C195.771 159.407 195.771 159.278 196.331 157.77C196.676 156.909 196.977 155.228 196.977 154.108C197.021 152.341 197.15 152.083 197.883 152.083C198.702 152.083 198.745 151.781 198.702 141.614C198.702 135.884 198.53 130.283 198.271 129.249C198.012 128.172 197.409 126.837 196.892 126.276C196.374 125.716 195.34 124.941 194.649 124.596ZM94.7473 16.3851V18.9701H101.215V26.7251H94.7473C94.7473 37.582 94.9191 40.0808 95.1785 40.0808C95.437 40.0808 95.6096 41.1578 95.6096 42.4504C95.6096 43.7429 95.437 44.8199 95.1785 44.8199C94.9191 44.8199 94.7473 47.1895 94.7473 51.067V57.314H101.215V62.0531H94.7473V74.1164C96.9031 74.1164 96.9031 74.1595 96.9031 77.563C96.9031 80.9666 96.9031 81.0097 95.8248 81.0097H94.7473V92.2116H115.442V81.0097C113.287 81.0097 113.287 80.9666 113.287 77.563C113.287 74.1595 113.287 74.1164 114.365 74.1164H115.442V62.0531C118.03 62.0531 118.03 62.01 118.03 59.6836C118.03 57.3571 118.03 57.314 116.737 57.314H115.442C115.442 47.1895 115.615 44.8199 115.873 44.8199C116.133 44.8199 116.305 43.7429 116.305 42.4504C116.305 41.1578 116.133 40.0808 115.873 40.0808C115.615 40.0808 115.442 37.582 115.442 33.4029V26.7251C113.287 26.7251 113.287 26.682 113.287 22.8476C113.287 19.0132 113.287 18.9701 114.365 18.9701C115.4 18.9701 115.442 18.8408 115.442 16.3851V13.8002H94.7473V16.3851ZM41.2828 133.14C41.2828 134.562 41.4553 135.725 41.714 135.725C41.9726 135.725 42.1451 136.199 42.1451 136.802C42.1451 137.405 41.9726 137.88 41.714 137.88C41.4553 137.88 41.2828 140.119 41.2828 143.695C41.2828 149.21 41.2397 149.511 40.4204 149.511C39.7306 149.511 39.5581 149.813 39.5581 150.804C39.5581 151.795 39.7306 152.096 40.4204 152.096C41.1966 152.096 41.2828 152.398 41.2828 154.681V157.267H49.0437C49.0437 152.656 49.173 152.096 49.6905 152.096C50.1216 152.096 50.3372 151.665 50.3372 150.804C50.3372 149.942 50.1216 149.511 49.6905 149.511C49.173 149.511 49.0437 148.822 49.0437 145.85C49.0437 142.877 49.173 142.188 49.6905 142.188C50.1647 142.188 50.3372 141.67 50.3372 140.034C50.3372 138.396 50.1647 137.88 49.6905 137.88C49.173 137.88 49.0437 137.189 49.0437 134.217V130.555H41.2828V133.14ZM112.855 142.188C113.675 142.188 113.718 141.886 113.718 136.371V130.555H119.755V133.14C119.755 135.424 119.841 135.725 120.617 135.725C121.436 135.725 121.479 136.026 121.479 143.911C121.479 150.891 121.565 152.096 122.125 152.096C122.643 152.096 122.729 152.614 122.557 157.051H114.796L114.71 154.595C114.623 153.217 114.408 152.096 114.149 152.096C113.89 152.096 113.718 150.502 113.718 148.219C113.718 144.687 113.632 144.342 112.855 144.126C112.338 143.997 111.993 143.566 111.993 143.049C111.993 142.475 112.281 142.188 112.855 142.188ZM185.291 133.14C185.291 134.562 185.463 135.725 185.722 135.725C185.981 135.725 186.154 136.199 186.154 136.802C186.154 137.405 185.981 137.88 185.722 137.88C185.463 137.88 185.291 140.55 185.291 144.987C185.291 151.795 185.248 152.096 184.429 152.096C183.653 152.096 183.567 152.398 183.567 154.681V157.267C186.929 157.267 188.395 157.051 189.085 156.793C189.732 156.534 190.378 156.104 190.551 155.844C190.724 155.543 190.896 154.681 190.896 153.949C190.896 152.872 191.111 152.485 191.758 152.312C192.577 152.096 192.621 151.752 192.621 141.326V130.555H185.291V133.14Z" fill="#313131"/>
</svg>
